<mxfile host="app.diagrams.net" modified="2024-03-27T10:09:35.198Z" agent="Mozilla/5.0 (Windows NT 10.0; Win64; x64) AppleWebKit/537.36 (KHTML, like Gecko) Chrome/121.0.0.0 Safari/537.36" version="24.2.0" etag="kw7WpLivQFPGDr4TzZwu" type="github">
  <diagram name="Page-1" id="g222YF-Jm8m_-aTRjJiv">
    <mxGraphModel>
      <root>
        <mxCell id="0" />
        <mxCell id="1" parent="0" />
      </root>
    </mxGraphModel>
  </diagram>
</mxfile>
